<?xml version="1.0" standalone="no"?>
<!DOCTYPE svg PUBLIC "-//W3C//DTD SVG 20010904//EN"
 "http://www.w3.org/TR/2001/REC-SVG-20010904/DTD/svg10.dtd">
<svg version="1.0" xmlns="http://www.w3.org/2000/svg"
 width="159.122336pt" height="51.955058pt" viewBox="0 0 159.122336 51.955058"
 preserveAspectRatio="xMidYMid meet">
<metadata>
Created by potrace 1.12, written by Peter Selinger 2001-2015
</metadata>
<g transform="translate(-5.762893,56.884134) scale(0.100000,-0.100000)"
fill="#000000" stroke="none">
<path d="M241 538 c11 -15 19 -42 18 -65 l-1 -38 -19 40 c-20 43 -26 35 -8
-11 10 -28 10 -28 -10 -9 -13 11 -21 31 -21 52 0 18 -3 33 -8 33 -21 0 -84
-67 -107 -115 -57 -115 -22 -254 78 -322 56 -37 117 -57 131 -43 15 15 11 151
-7 209 -17 56 -21 146 -8 191 5 17 9 -1 13 -60 4 -58 13 -101 28 -135 16 -33
25 -76 28 -127 5 -86 7 -89 70 -62 52 21 100 70 128 129 62 130 -1 284 -139
345 -37 17 -63 21 -116 18 l-69 -3 19 -27z m158 -125 c-4 -21 -20 -48 -35 -61
-32 -28 -43 -22 -20 12 23 35 20 46 -5 16 l-20 -25 3 25 c2 15 16 33 37 47 46
31 50 29 40 -14z m-163 -122 c20 -20 44 -76 44 -105 0 -13 -31 15 -62 58 -15
21 -28 34 -28 28 0 -6 16 -31 35 -56 39 -51 35 -57 -16 -23 -42 28 -59 60 -59
115 l0 43 31 -18 c17 -10 42 -29 55 -42z m239 -61 c7 -51 -15 -104 -52 -127
-21 -14 -21 -13 4 47 33 82 23 89 -13 9 -24 -53 -29 -59 -37 -42 -13 30 9 98
45 139 17 19 35 31 39 27 5 -5 11 -29 14 -53z"/>
<path d="M616 510 c-28 -34 -33 -73 -15 -113 16 -34 48 -49 100 -45 l44 3 0
45 c0 42 -2 45 -29 48 -37 5 -60 -16 -28 -24 15 -4 22 -14 22 -30 0 -31 -24
-31 -55 1 -31 30 -32 73 -4 104 18 19 27 21 61 16 32 -6 39 -4 36 6 -3 9 -24
15 -55 17 -46 3 -53 0 -77 -28z"/>
<path d="M801 458 c-18 -46 -35 -89 -38 -95 -3 -8 3 -13 15 -13 13 0 22 9 26
25 5 21 12 25 41 25 28 0 38 -5 47 -25 11 -25 55 -37 45 -12 -2 6 -19 49 -37
95 -23 60 -36 82 -49 82 -13 0 -27 -22 -50 -82z m69 -25 c0 -7 -11 -13 -24
-13 -23 0 -24 2 -13 36 11 35 11 35 23 12 8 -13 13 -29 14 -35z"/>
<path d="M964 527 c-3 -8 -4 -49 -2 -93 3 -66 6 -79 21 -82 14 -3 17 4 17 37
0 23 4 41 9 41 5 0 22 -18 38 -40 18 -26 36 -40 51 -40 22 0 22 1 -8 41 l-30
41 20 26 c25 31 25 37 0 62 -24 24 -107 29 -116 7z m90 -32 c6 -17 -19 -45
-40 -45 -9 0 -14 11 -14 30 0 25 4 30 24 30 13 0 26 -7 30 -15z"/>
<path d="M1140 445 l0 -95 50 0 c71 0 100 29 100 99 0 65 -29 91 -101 91 l-49
0 0 -95z m94 49 c35 -35 11 -114 -35 -114 -17 0 -19 7 -19 65 0 58 2 65 19 65
11 0 27 -7 35 -16z"/>
<path d="M1330 445 l0 -95 70 0 c56 0 70 3 70 15 0 11 -12 15 -50 15 -46 0
-50 2 -50 24 0 21 5 25 37 28 52 4 56 28 4 28 -37 0 -41 3 -41 24 0 23 5 25
48 28 71 5 57 23 -20 26 l-68 3 0 -96z"/>
<path d="M1500 445 c0 -78 3 -95 15 -95 12 0 15 14 15 63 l0 62 40 -62 c57
-91 70 -85 70 32 0 78 -3 95 -15 95 -12 0 -15 -13 -15 -57 l0 -58 -38 57 c-21
34 -44 58 -54 58 -16 0 -18 -11 -18 -95z"/>
<path d="M1543 240 c-27 -11 -45 -43 -37 -65 4 -9 27 -26 53 -38 64 -31 61
-52 -6 -51 -37 1 -53 -2 -53 -11 0 -31 100 -35 130 -5 36 36 20 70 -45 94 -33
13 -45 23 -43 35 3 12 14 16 46 14 31 -1 42 2 42 13 0 8 -6 14 -12 14 -7 0
-22 2 -33 5 -11 2 -30 0 -42 -5z"/>
<path d="M610 145 c0 -88 1 -95 20 -95 17 0 20 7 20 40 l0 40 46 0 c59 0 55
24 -4 28 -37 3 -42 6 -42 28 0 22 4 24 50 24 38 0 50 4 50 15 0 12 -14 15 -70
15 l-70 0 0 -95z"/>
<path d="M782 228 c3 -7 14 -14 26 -16 20 -3 22 -9 22 -67 0 -58 -2 -64 -22
-67 -12 -2 -23 -9 -26 -15 -3 -10 15 -13 67 -13 56 0 71 3 71 15 0 9 -9 15
-25 15 -24 0 -25 2 -25 64 0 59 2 65 22 68 12 2 23 9 26 16 3 9 -15 12 -68 12
-53 0 -71 -3 -68 -12z"/>
<path d="M970 145 l0 -95 70 0 c56 0 70 3 70 15 0 11 -12 15 -50 15 -49 0 -50
1 -50 30 0 28 2 30 40 30 22 0 40 5 40 10 0 6 -18 10 -40 10 -36 0 -40 3 -40
24 0 23 5 25 48 28 71 5 57 23 -20 26 l-68 3 0 -96z"/>
<path d="M1150 145 l0 -95 70 0 c56 0 70 3 70 15 0 11 -12 15 -50 15 l-50 0 0
80 c0 73 -2 80 -20 80 -19 0 -20 -7 -20 -95z"/>
<path d="M1320 145 l0 -95 40 0 c46 0 95 21 104 45 3 9 6 34 6 56 0 59 -34 89
-100 89 l-50 0 0 -95z m98 53 c7 -7 12 -31 12 -55 0 -32 -5 -45 -19 -53 -43
-23 -51 -14 -51 55 0 61 1 65 23 65 13 0 28 -5 35 -12z"/>
</g>
</svg>
